<mxfile host="app.diagrams.net" modified="2024-01-22T17:05:12.253Z" agent="Mozilla/5.0 (Macintosh; Intel Mac OS X 10_15_7) AppleWebKit/537.36 (KHTML, like Gecko) Chrome/120.0.0.0 Safari/537.36" etag="QuXZHnWv8cgSqkPd7KB9" version="22.1.16" type="device">
  <diagram name="Page-1" id="IhZyD-0NyNOMUO8CMS5g">
    <mxGraphModel dx="1434" dy="761" grid="1" gridSize="10" guides="1" tooltips="1" connect="1" arrows="1" fold="1" page="1" pageScale="1" pageWidth="850" pageHeight="1100" math="0" shadow="0">
      <root>
        <mxCell id="0" />
        <mxCell id="1" parent="0" />
        <mxCell id="RUbAKF7c2tXAsmMlYqQT-15" value="" style="rounded=0;whiteSpace=wrap;html=1;fillColor=#f5f5f5;strokeColor=#666666;fontColor=#333333;" parent="1" vertex="1">
          <mxGeometry x="40" y="30" width="570" height="300" as="geometry" />
        </mxCell>
        <mxCell id="RUbAKF7c2tXAsmMlYqQT-6" style="edgeStyle=orthogonalEdgeStyle;orthogonalLoop=1;jettySize=auto;html=1;entryX=0;entryY=0.5;entryDx=0;entryDy=0;entryPerimeter=0;curved=1;strokeWidth=8;" parent="1" source="RUbAKF7c2tXAsmMlYqQT-1" target="RUbAKF7c2tXAsmMlYqQT-5" edge="1">
          <mxGeometry relative="1" as="geometry" />
        </mxCell>
        <mxCell id="RUbAKF7c2tXAsmMlYqQT-1" value="" style="sketch=0;points=[[0,0,0],[0.25,0,0],[0.5,0,0],[0.75,0,0],[1,0,0],[0,1,0],[0.25,1,0],[0.5,1,0],[0.75,1,0],[1,1,0],[0,0.25,0],[0,0.5,0],[0,0.75,0],[1,0.25,0],[1,0.5,0],[1,0.75,0]];outlineConnect=0;fontColor=#232F3E;gradientColor=#60A337;gradientDirection=north;fillColor=#277116;strokeColor=#ffffff;dashed=0;verticalLabelPosition=bottom;verticalAlign=top;align=center;html=1;fontSize=12;fontStyle=0;aspect=fixed;shape=mxgraph.aws4.resourceIcon;resIcon=mxgraph.aws4.s3;" parent="1" vertex="1">
          <mxGeometry x="260" y="210" width="78" height="78" as="geometry" />
        </mxCell>
        <mxCell id="RUbAKF7c2tXAsmMlYqQT-3" value="" style="edgeStyle=orthogonalEdgeStyle;orthogonalLoop=1;jettySize=auto;html=1;strokeWidth=7;curved=1;entryX=0.5;entryY=0;entryDx=0;entryDy=0;entryPerimeter=0;" parent="1" source="RUbAKF7c2tXAsmMlYqQT-2" target="RUbAKF7c2tXAsmMlYqQT-1" edge="1">
          <mxGeometry relative="1" as="geometry" />
        </mxCell>
        <mxCell id="RUbAKF7c2tXAsmMlYqQT-2" value="" style="shape=image;html=1;verticalAlign=top;verticalLabelPosition=bottom;labelBackgroundColor=#ffffff;imageAspect=0;aspect=fixed;image=https://cdn4.iconfinder.com/data/icons/miu-black-social-2/60/github-128.png" parent="1" vertex="1">
          <mxGeometry x="90" y="100" width="110" height="110" as="geometry" />
        </mxCell>
        <mxCell id="RUbAKF7c2tXAsmMlYqQT-5" value="" style="outlineConnect=0;dashed=0;verticalLabelPosition=bottom;verticalAlign=top;align=center;html=1;shape=mxgraph.aws3.cloudformation;fillColor=#759C3E;gradientColor=none;" parent="1" vertex="1">
          <mxGeometry x="425" y="150" width="76.5" height="93" as="geometry" />
        </mxCell>
        <mxCell id="RUbAKF7c2tXAsmMlYqQT-13" style="edgeStyle=orthogonalEdgeStyle;orthogonalLoop=1;jettySize=auto;html=1;entryX=0.5;entryY=0;entryDx=0;entryDy=0;entryPerimeter=0;curved=1;strokeWidth=7;" parent="1" target="RUbAKF7c2tXAsmMlYqQT-5" edge="1">
          <mxGeometry relative="1" as="geometry">
            <mxPoint x="390" y="90" as="sourcePoint" />
          </mxGeometry>
        </mxCell>
        <mxCell id="RUbAKF7c2tXAsmMlYqQT-14" value="" style="shape=image;verticalLabelPosition=bottom;labelBackgroundColor=default;verticalAlign=top;aspect=fixed;imageAspect=0;image=data:image/png,iVBORw0KGgoAAAANSUhEUgAAAUcAAADWCAYAAABCBEA5AAAY5klEQVR42u3dCbTU1P0H8AfKIotIXSqKBEEtiFqp4r5MEv6uIG21VWr/tmpLrcimssgiEKHWKooWd2R9CAoMiCCIouCCoqjggqiggCguqMDMnTeTm+T23Hn34TBvJstMZibz3vdzzu/AgZc9+b4sNzcVFQAAAAAAAAAAAAAAAAAAAAAAAAAAAAAAAAAAAAAAAAAAAAAAAAAAAAAAAAAAAAAAAAAAAAAAAAAAAAAAAAAAAAAAAAAAAAAAAAAAAAAAAAAAAAAAAAAAAAAAAAAAAAAAAAAAAAAAAAAAAAAAAAAAAAAAAAAAAAAAAAAAAAAAAAAAAAAAAAAQOEST9iOa1Ilo0gVEk3oTTbqFaNIdRJPGiOJ/H0E06W9Ek3oSTepGNOlgrDkAqIuB2I5o0qVEk/5DNGku0aSPiCbFiSYxhzKIJn1FNGkF0aRHRWCeiDUKAOUciMcQTRpINGkZ0aSEiyD0Uu+KoD0TaxoAyiUUe4izQ78DMVu9RzRpENGkQ7H2ASCIoXgV0aQ1RQrETLWTaNJYokmHYGsAQBBCkT9YWVXCUEyvH4gm3YotAwClCsWWRJOmBCgUM11ud8eWAoBiBmMvoknbAhyMqXUnthgAFCMYx5RJKKYWv+xvg60HAIUIxUZEkxaWYTDW1A6iSadiSwKAn8HYnGjSm2UcjDVlEU26CFsUAPwIxlZEkzbUgWBMLQQkAOQVjPsTTVpdx4KxpvAkGwByDscVdTQYeelEk7pgKwOA12B8qA4HY01tJ5p0ALY2ALgNxj/Vg2CsqWXY4gDgJhiPEE91WT2qm7DlAcApHFfVs2CsqfbY+gCAy+natRJ7AABkCsYmotsvVo+rF/YEAEgPxzH1PBh5bcKeAACpwXgg0SSCcEzWVdgjAOpOuDUmmhQimnQD0aSJRJNmi04iZhJNult8mOpMokkNsgw/BKG4tz7GHgVQ/qF4CtGkB4gmfeb2wCeadBfRpM5p49mGUNynzsbeBVCeoXgc0aTKPHunmczPJEXAIhD3rdnYywDKLxivc/nNZzf1PtGkdxCGtYqv35bY2wDKJxgnIrjwYAYA9g3GhxFYRaw72ldirwMIfjCORGAVs9ozMqbtF9jzAIIdjGchrIpf0VsbM7pmyinYAwGCG46fI6yKHIwjD+FnjoxV7d7FGHuEMXYS9kSAYAXjPxBWRb/XyCIDK1i88uoEqxH/yTKWXvkmnX3yWhoOraPh0Ds0HHqBhkOzaDg0gYZD19FwqBsNhw7EXgtQnHBE4+xi19ijWHRghWl8+ExNOFrmhmlMn9KG0QUKo+GQXW2n4dACEZbtsAcDFCYYz0dYleCSelhLFruri86MBK0JR2NlX12v7MRoWHYKx9TaQ8Oh2TQcUrA3A/gbjvcirEpwSd2vwko8OyzOQzEZjbHvKQ3LBn36NC/BmF4raTh0AfZqAH/C8S0EVpHPGkcfzqJDW1Dz6w/0mtuN1tblCX3msdTjWWO2WkrDoZOxdwPkHowtiCb9gMAqbtvG6M37sarHLub3Gs2acDTfHq/rM49lPoUjL4uGQ0OwlwPkFo6diCaZCKwinzn2q7Dom0/sPWvk9x2NJb+ndPbJfgVjaj1Hw6HW2NsBvIXj8QirItfw1ozcIRmM/GjsvaT+fr1OZ5+s0/nnFiIceW2m4dCJ2OMBEI4BfRBzND9rZIn5N+l7H8TwS+oPH0/oM44tVDDWVIyGQzL2egB34cj7azQQXEWq2w9n0SHNDPOrdZSlMFb1s/SZxxU6HHmZNBxCB7sALgNyK4KrGGeNHVjkptpnjcxIJIylf4gX6H5jpkrQcKgT9nwA+2BsRTRpDcKrwDWuA4sOacrImKN0Fv1+n7NGFv2a0LASoU+fXqxw5PUlDYfQyS6ACMJfEU36K9GkSUSTXiWa9BHRpG+IJsUQYAW+zzjyEBa9qcIwNjyX2OesMRmOOwgNy3uKHI68luCogPociIcSTepHNOl13FssTTCSUb9kkRsrTPrKRJ1lYlLdWNab0idPKnY48uqHowTqWyj+QnwqdTdCqpRnjIfyYLT0JcOrUht8pzNeH2ro0zv42QDcS0k4YqC+BGNfcbmMgCrlPcahzVl0QIWlv3yPUetSOo21ZVmcTu9g0vD5pQhHXF5DnQ/FQ4gmPYtwKvFl9Ji2LNq/gl9OJ4z35ujMDcu0jOevpvr0jowuUEsRkOfiCIK6GoynEU36CgFVul52kqE4qAE/WzTik3vq1s5N1OmMcZ983LWZvyWToDOPEf05FvUSew2OIqiLwdgd70eXqEa3YdFhB7LIgAoWvbkhrXpQ1o31c3UvobhPQO58P24s+L+EPuVIi84+idH55xQzJLviaIK6FIznBu5remPbMjL6CEZGH8nImCOTf082Zclah7LoiIOTnb9Gh7ao/jNT8f+7tbFDNWLRW5xq/2SvOPbVsPosMFsNrEieIZLbWsVjd5+cSDzVp8r4eGnC7qGLa5RQc/1/48biXjp98qS4PqOjyXvr4W/Q8I5wk53hVnZmdNbx1fXkiSzZgHzOKSzZHGjumSzHe5czcURBXQnGjoFqoziuY3XIDW1OyYhfRMnw1oQMb0XIiINjsXEdYrHxx5DYuI61646jSexfx1VVTTyDVd1/Fqu6/8zaNfF0VvXA2azq8R6sanLPzMX/74leZnxm792i9tSq6X/cE591zR79mVuyV7j/Lv25kVX01UmMvnJ/7Vo5gdHVjzC6bq5ufrE6ymiV6Usopp1EMpOa7Ju3ibVliWF9MotZG6ZY5rv3RMy3xu02Xhu8y1jVP2a81IcZL/6VGcuuYsbiXoaxsDuh884hdNYJNBmS3u5fVqH3Hqgr4fhhoM4ab2vNYhNPp8bG5+Pmtrci5pY3o+aW1VFz21vE+n4TsX74PGrt3Fy7vvssYv24JcYSUcb0GGM6qV2JCGM07jZYjDyLFiDs/JJ5Ho0E/ziXwSLbIuynTyPWlyvixpLfmvSpU72ePV6JIwvKPRgnBu3+W6RvBUs8O9hgEIwUfamPRZPfo/EUjtNxdEE5B+MJQe1xJjb+WFNfOsrQVz/KatXrjzC6ZmqCvvPkbvrOrEitWlsZoW/PiBgblkTMTSsj5qcrMtSLe8xPX4xYOz4wrZ2bmPXdJxlqI7O+3cis2I/MSkQzVzzC/7R4pw/M0OMZiybizEyermYqq0gZZ+2dJp8XI04ZJYzFvmNszxZm/fChbu14Y7e1bUXE2rxot7lpHjU/nc2MNaMNOvdMk4bP8xqOn9NwqCGOMijXcHwjqA2f+dNb/i3mSL/MxR9iRAc1qIoOqojXqoGiBjeN8wcdZFjLDNWiuka3scjYdtUPf9JrTNvkg6DYnZ1Y7N/HZ6+7ulixe7tFYvedvid232mRWnXvqZHYxDMi8cd7RuJP9IrEJ18WiU/uuSf++KWR+JzrTH35HQlz08q4z5fgFov/SK1tL1aZ7z+oG28MN42Xb4wYL1y7x1hyxW66uFecLrqY0YUqo/PPY3TuGQad3TVOZ3WJ0xnHVenTO5j6NKn6oQ1/KOP8iddMn1bojKMMyjEYy/szqslAO8qm2lU/4b69TTJos1V01GE/P+nOVsNbs+jwg7KU+L9hB2Z/Ol7zf4ObsOitTar/TFbT6l8AfSvM6OAmetVDatzcsjqRZyia1rdrE+aa0XFjgZrQKzsb+jSp+in1rC7VT6TndGV0zm9Y8j7iU91+fjI972yW7EGch6U/b9hcjiMNyjEcn0H7wgA1Wxp9RHUbx1sb6ca7T9KcYvGnT6ixqn+czv411ae1t5LhN/+8UrwlU1PDcKRBuQXjkWjsHdD3qPkZZv8Kany2UvdyCW1+8GiCzjmF6tPbV58BLpBLGYo1NQlHG5RbOA5AGAU1II9ONhyP3fMbnRm68z3IxB5qvHwD1ae2tejTp5XqfepsNR9HG5RbOKJTiUBXu+QDJ2P9PPsGmeQbnS66NK5Pk6zqMJKDFIy8VuBog3IKxqZEk3YggILd+USkX4WVmH9j9jPH6Nc6XXhBXJ/RIZcnycWqZTjioJzC8QQEUPCLP9WOP3Yxf3KtZ+jx2zCW/D6uT2sf5GDk9TyOOCincOyF8CmDcBzajMUnhXYzxmLp0Wisvo3qU48KykMXhCPUmXDsg/Apk3B8UI4wxqr2eSy9dbmuT21rJtsjhgMfjpU44qCcwnEEwif4FRnUkMVn9rb2eb1Qj5p04YVGsn/GYF9O19QEHHFQTuE4GuFTBuHYr8LUnx+7z9sy5oYpuj71KKtMgpHXP3HEQTmF40iET8CLfyZhcBPT2LhcT3kIY9Ilv9N1ftYY/MvpmuqOIw7KKRxvQAAF/H7j8INY7N+ddSse2fsaofXlygSt7GTS+eeXSzASGg4dhiMOyikcL0cABfwb1f0qWLzy6n37VHxlAKMzjimns8b3cbRBuYXjwUSTVhNN2owKXkVvP3wzGXXYJ+bmVzYwxjbXlLn2zk9pZadNNBzaXCb1/zjaAAAAAAAAAAAAAAAAAAAAAAAAAAAAAAAAAAAAIBtZUQ+SFVWRFbW3rKg3yYraX/yd/9thPk2jiayoLWVFbZZW/N8alWi528qKepGsqH8Ry9xXVtQrZEU9S1bU5j5O5wBZUVtkWfb9XQy/v/jZ5mnDtxDjbuByPvh4DswwH+njbFrg9d7AZp3kUnyZGrucdtOg7Ycp++IxsqIenVId+Z8+T6eh2I+au1y3LQuwrNn251yqudiP9vNzBveTFfVPsqI+JyvqDllRWZbaKSvqC7Ki9sknMGRFfVRW1K9kRf0yrfi/9S3yTjhYVtQ3ZEXdY7PcfN7myIra04dpvi4r6vYsy365i+H/nmXdbRfL0czlfFwpK+rXGcaTPs6tsqKukxX1HVlRF8iKOlb80mjl0zbgB8a7WdZJLsWXSXM57bk2+2G/EgXjsbKi7pIVNSEraiyl4uLP832c1q9TtrObdcvXy0axP6ySFXWC2I/yyYIrsmyDXIsvy8U207tYVtRbRJ3tNHM8FD+1CQa7wPh7jitkuc14tSLthGPEzuZ1ud+UFfXCPKa7y2bcfVwMP8JmeB7wLVzOx405LHtq/Sgr6lRZUU/34UqF5jkv6TXF5bTX2YxjfInC8T6HZVvq47TO9Gl9fysr6u05zkMfn7c9r95ZpnWtrKjfy4oaFr/ot8mKekmmH2wkzobynZFFXs8iZEWdZzO+YQXe+TqJM5V8l/s/OU7/c5txXuNi+Jttht/i9re4rKjX+bgzPuzmlkCW+WglK+o3Ph8cD7ic9kqbcYwoQTA2c/jlWVOST9Pr5vN651cXh3qch2sKEI6/z3KF8pisqIPEyRmvJ2RF/W/6D/Lr8rU+zsxGL/cjSxWO/CxHVtTdPi73PITj3vqA3xdDOOa1f/7d5fJNCGg48vrI7T3fIofjYbKi3iMr6qXiiuFZfotCVtSH0n/wlQLM0HtBDkdZUQ93+VvZaz2KcNxb/N7RwQEIx0llGo4fuly+n/x4UFagcPQU3gUKxz9kmdYdIhj57YTu4nbAoNQfuMvDRExRbn/+wQCH42selzvvjVEPw5HXawEIx1nlFo6yop7rcRn/GuBwNNxeXhc5HFuLW0D8DPJeWVHv3nuWKyvqCS5H/pCsqBfIinqEqMv4TW6Xw3YNWji6DAJ+1nO72GH4MkuiWc8iF8Pu9vAgpBzCkY9nXFpViodwbvaB630Mx4fFTfsbXdYwHjRlGI7hQl2p5RiOP4kmfD1kRe0lMqCnaOI2PdeHIh7DkZ/ldZUV9Teyop7qorqJW2etHabZRVbU47yEEhMH7gkOK3OHwzgWBikcRTOl7Q7zvMxuhbr87Ta4DoXj4izDNBL3xZzu237t9gGNi3A8tYCBFIhwFL+MczlDOreA4fiVw7C9HOZtvA/h+FKxNsAvZUW1HNowHuliPLxxatRhxRwVoHC8xKlpjsvxXOkwng11KBxfdhi2s6yoPzisj4t8CsfL6kE4jrOZj5jNcTu/gOH4jVMrFFlRl+R739EhHF8u1gb4i4+XQjc4jGtAgMLxEYd57eBhXE5NnzrVh3AUw1/m0xNjp3DsWpfDUVzZfJdlHiLiDO17m3vjbUoYjhNthr/Hh3Bcm/aGkF39StwKa5DLipjksCL29zi+C8VZ2UVpxe9RdAlQONo1WVrmcVynOATCtfUlHMU41tuMY4VP4ThJXMq7rQ5lFo69nRp8i2Yn2X5mXAHDsbnD8Btthr/dh3A0094QsisqXmY5IJcVsczP9np57hBFCUfxnq3dgXeTx/E1dAi3IfUsHP9td5vBzTuuBXhafX2ZhePbNvNwlfiZyx3eTmlYgHD82mY43mZwmsN26F6Cp9U73b4+mz4Tdk1Z/ltHw7GNeM0t27T+5POl2IR6Fo528/KFm7Z4BQjHP5ZLOIonrHavZzaq+Llzhm+cQtTncORnY8+IW0nzRc0R/S/sctHyY/8ShOOWXM8c7Rp+P1xPw/GaHMb5aj6vFBY4HLcWORwH24xjs5uebep5OFbaTP9uD2fpawoQjvnUlR7mIRDhuNhmpM/X0XBsLn6LZZvWqBxuntu19bs5z3Ds7WL4AQEKx4fs3rP16Z5jnQxHWVEPkRVVt3kQ0zjDvmfXc9RJAQnHxzzOg9+NwJvnsjHutxlh1KnhZIbxteNNdkS3X6nV3kUjzGI+kHnDrpGpx3Gd47BhfutiHNtshr8uz3Bc7/b+k0/huNVmHPNLFI7Xl0k4DnN4GHKbrKijRRdx/M8h4v5itmGmBSAc785hHuzCcYfo3tBt/Sunfjj5b1SHBZvoYVwjU54SVaUVc+rSq8jhONFhuXt4GJddV2uWm1emRAcN2cYx1cXwdjfCX/ewLPk25enrsF5v9ikcl4tf7JNdFH+Lq1uZhON2n4OJ9/94UInCka/HM3JcD3bh+EKxLmVbpYRXtrrExXjOcxgHf+x+YB7hONTn5Xaa311OjdbFeG5xGM9LLudngc04CL/ccnj6TmyGf9KncHzJYdhLXBwwR/sUjmcU8JiwC8fhBZzuZQW61zfEx3A0RfvLLx3OWJPhmMe6uMav9/Tz3SiPu1jBNzosiO4wvOZiPuzCsW8BlvtjF6+7XZBl2MbinWvmxxmoi3G9kqnxrQjGVQ7D9vcpHJ/PMszJDrdnbF8/zDEce5QoHPuXaLr51FYfw/FbcdusqdhGTi9APFCAcHyxmOEouVzJa0WP078TNUR07++mA4ZWeYbje+LSsdJF8Zf1b/XxNzV/HeqfKcs9XlbUz1wM966HbXCKi/FtFz2G1MzHXS47fejoUzjysJohK+pM8edShwbfnt8U8hCOpXp9cJ2H/XCB2yseWVGPL1Aw5nKbyC4cd6T9bAvRGYXdtEM+h+NmcTzyDkX6uayB/PMPue4QAwq4Yf7och7m+TjNt324nM23OnncBu8WYB6e9TgPheqybLjH+QhqOHqt911O88ECh+OLPoVjrdcH+QNHh2nv8PpxqwJ1WTYyn51iTgFm6F6fmvJ4rcUup3mAw9PVXOvPOaz/swowH50DEI5TclgXdSUcl7uYXkuHTlsmiXeEu9rUcaJ7f7t5Ob4Q4SiGedph2pUBCMf++e4Yfp5J3edx2kUPx4qfG4Vv8HHa/fJY/+N9nI9/5jB9v8NxfI7roT6F40CH1g6/cDnfhznMyyMFDMdm4jU9vy7tgxeOFc5dJbltPnBzDtMtSTimPNjI98x5h0+fab2r2E8oCxCO6+0+hYlw3Gd6dl/5XORx3p9zaLfcohDh6PIe/o9uP7oX2HBMucRbnsMMPOX1Ui5lmq/5uCLeyXEe/uzxIUPNp08neP1OisN8XOHh2yGp9Ybbl/tzOItx80uRP6S52oflb+1Hj9I5TvszH/fDDx2m9TeH4S/0OO+X5Hs15+KlBrsOoGc7DLvOzdsqLtrL5lKj/N5RThffVnhVNO7OFAwvi4/UnJTntIaKbpgW5lnP5nXztXpeeogGxO+Lb1+kL/d34lMJPEwOL9BB2kA8lZ4qdqp4lrOB1eKVvQt9mGZ38Uqpm3X8lPhcwSjRLV07H5e9mXgqvCjDtPm/nVbAcBzn4344xsU+vzjLsFNznP/JWeZ/kZtnAKLj6mdEpQ8/za6HG3H/9Kks222hOCs/0cU8yD5tg9T12aNQO8zh4vsxvHPcf4iOba+WFVXx+k1am2k0EgdFkzyrWU6vC2Wep2NFUP5NfLOEL/sfZEU9248vvXmYj2PE+r9arPsbxNtNqpue2j1MZz/x7rmbddygwMvcWDwwS5/2Abl2xxW0/ZC/vZJlWs18+OWSab0d5GLYBqIdY9MMwzd2MXzDLNutibgiaOVyP/RjG6Rui/0qAAAAAAAAAAAAAAAAAAAAAAAAAAAAAAAAAAAAAAAAAAAAAAAAAAAAAAAAAAAAAAAAAAAAAAAAAAAAAAAAAAAAAAAAAAAAAAAAAAAAAAAAAAAAAAAAAAAAAAAAAAAAAAAAAAAAAAAAAAAAAAAAAAAAAAAAAAAAAAAAAAAAAAAAAAAAAACg3vsfH2ZdC7MvHykAAAAASUVORK5CYII=;" parent="1" vertex="1">
          <mxGeometry x="230" y="40" width="152.8" height="100" as="geometry" />
        </mxCell>
        <mxCell id="Wn9fYrWoe3Q-h8Q3vDjF-68" value="" style="group" vertex="1" connectable="0" parent="1">
          <mxGeometry x="40" y="360" width="960" height="480" as="geometry" />
        </mxCell>
        <mxCell id="Wn9fYrWoe3Q-h8Q3vDjF-1" value="" style="rounded=0;whiteSpace=wrap;html=1;fillColor=#f5f5f5;strokeColor=#666666;fontColor=#333333;" vertex="1" parent="Wn9fYrWoe3Q-h8Q3vDjF-68">
          <mxGeometry width="960" height="480" as="geometry" />
        </mxCell>
        <mxCell id="Wn9fYrWoe3Q-h8Q3vDjF-2" value="ERP System" style="sketch=0;outlineConnect=0;gradientColor=none;fontColor=#545B64;strokeColor=none;fillColor=#879196;dashed=0;verticalLabelPosition=bottom;verticalAlign=top;align=center;html=1;fontSize=12;fontStyle=0;aspect=fixed;shape=mxgraph.aws4.illustration_office_building;pointerEvents=1" vertex="1" parent="Wn9fYrWoe3Q-h8Q3vDjF-68">
          <mxGeometry x="30" y="30" width="90" height="63.9" as="geometry" />
        </mxCell>
        <mxCell id="Wn9fYrWoe3Q-h8Q3vDjF-20" style="edgeStyle=orthogonalEdgeStyle;rounded=0;orthogonalLoop=1;jettySize=auto;html=1;entryX=0;entryY=0.5;entryDx=0;entryDy=0;curved=1;" edge="1" parent="Wn9fYrWoe3Q-h8Q3vDjF-68" target="Wn9fYrWoe3Q-h8Q3vDjF-18">
          <mxGeometry relative="1" as="geometry">
            <mxPoint x="350" y="62" as="sourcePoint" />
            <Array as="points">
              <mxPoint x="350" y="63" />
              <mxPoint x="390" y="63" />
              <mxPoint x="390" y="400" />
            </Array>
          </mxGeometry>
        </mxCell>
        <mxCell id="Wn9fYrWoe3Q-h8Q3vDjF-3" value="Shipment&lt;br&gt;" style="sketch=0;outlineConnect=0;fontColor=#232F3E;gradientColor=none;strokeColor=#232F3E;fillColor=#ffffff;dashed=0;verticalLabelPosition=bottom;verticalAlign=top;align=center;html=1;fontSize=12;fontStyle=0;aspect=fixed;shape=mxgraph.aws4.resourceIcon;resIcon=mxgraph.aws4.topic_2;" vertex="1" parent="Wn9fYrWoe3Q-h8Q3vDjF-68">
          <mxGeometry x="218" y="22" width="80" height="80" as="geometry" />
        </mxCell>
        <mxCell id="Wn9fYrWoe3Q-h8Q3vDjF-9" style="edgeStyle=orthogonalEdgeStyle;rounded=0;orthogonalLoop=1;jettySize=auto;html=1;curved=1;" edge="1" parent="Wn9fYrWoe3Q-h8Q3vDjF-68" source="Wn9fYrWoe3Q-h8Q3vDjF-2" target="Wn9fYrWoe3Q-h8Q3vDjF-3">
          <mxGeometry relative="1" as="geometry" />
        </mxCell>
        <mxCell id="Wn9fYrWoe3Q-h8Q3vDjF-5" value="Routing" style="sketch=0;outlineConnect=0;fontColor=#232F3E;gradientColor=none;strokeColor=#232F3E;fillColor=#ffffff;dashed=0;verticalLabelPosition=bottom;verticalAlign=top;align=center;html=1;fontSize=12;fontStyle=0;aspect=fixed;shape=mxgraph.aws4.resourceIcon;resIcon=mxgraph.aws4.topic_2;" vertex="1" parent="Wn9fYrWoe3Q-h8Q3vDjF-68">
          <mxGeometry x="130" y="140" width="80" height="80" as="geometry" />
        </mxCell>
        <mxCell id="Wn9fYrWoe3Q-h8Q3vDjF-11" style="edgeStyle=orthogonalEdgeStyle;rounded=0;orthogonalLoop=1;jettySize=auto;html=1;curved=1;" edge="1" parent="Wn9fYrWoe3Q-h8Q3vDjF-68" source="Wn9fYrWoe3Q-h8Q3vDjF-2" target="Wn9fYrWoe3Q-h8Q3vDjF-5">
          <mxGeometry relative="1" as="geometry" />
        </mxCell>
        <mxCell id="Wn9fYrWoe3Q-h8Q3vDjF-12" value="" style="image;aspect=fixed;perimeter=ellipsePerimeter;html=1;align=center;shadow=0;dashed=0;spacingTop=3;image=img/lib/active_directory/database.svg;noLabel=0;" vertex="1" parent="Wn9fYrWoe3Q-h8Q3vDjF-68">
          <mxGeometry x="520.945" y="125" width="108.11" height="80" as="geometry" />
        </mxCell>
        <mxCell id="Wn9fYrWoe3Q-h8Q3vDjF-13" value="Business Segment, Vertical or Customer Registration" style="text;html=1;strokeColor=none;fillColor=none;align=center;verticalAlign=middle;whiteSpace=wrap;rounded=0;" vertex="1" parent="Wn9fYrWoe3Q-h8Q3vDjF-68">
          <mxGeometry x="497" y="195" width="156" height="60" as="geometry" />
        </mxCell>
        <mxCell id="Wn9fYrWoe3Q-h8Q3vDjF-17" style="edgeStyle=orthogonalEdgeStyle;rounded=0;orthogonalLoop=1;jettySize=auto;html=1;entryX=0.5;entryY=0;entryDx=0;entryDy=0;" edge="1" parent="Wn9fYrWoe3Q-h8Q3vDjF-68" source="Wn9fYrWoe3Q-h8Q3vDjF-14" target="Wn9fYrWoe3Q-h8Q3vDjF-12">
          <mxGeometry relative="1" as="geometry" />
        </mxCell>
        <mxCell id="Wn9fYrWoe3Q-h8Q3vDjF-14" value="&quot;domain&quot; registration" style="rounded=1;whiteSpace=wrap;html=1;" vertex="1" parent="Wn9fYrWoe3Q-h8Q3vDjF-68">
          <mxGeometry x="515" y="32" width="120" height="60" as="geometry" />
        </mxCell>
        <mxCell id="Wn9fYrWoe3Q-h8Q3vDjF-16" style="edgeStyle=orthogonalEdgeStyle;rounded=0;orthogonalLoop=1;jettySize=auto;html=1;" edge="1" parent="Wn9fYrWoe3Q-h8Q3vDjF-68" source="Wn9fYrWoe3Q-h8Q3vDjF-15" target="Wn9fYrWoe3Q-h8Q3vDjF-14">
          <mxGeometry relative="1" as="geometry" />
        </mxCell>
        <mxCell id="Wn9fYrWoe3Q-h8Q3vDjF-15" value="" style="sketch=0;outlineConnect=0;fontColor=#232F3E;gradientColor=none;fillColor=#232F3D;strokeColor=none;dashed=0;verticalLabelPosition=bottom;verticalAlign=top;align=center;html=1;fontSize=12;fontStyle=0;aspect=fixed;pointerEvents=1;shape=mxgraph.aws4.data_stream;" vertex="1" parent="Wn9fYrWoe3Q-h8Q3vDjF-68">
          <mxGeometry x="290.8" y="35.94999999999999" width="52" height="52" as="geometry" />
        </mxCell>
        <mxCell id="Wn9fYrWoe3Q-h8Q3vDjF-63" style="edgeStyle=orthogonalEdgeStyle;shape=connector;curved=1;rounded=0;orthogonalLoop=1;jettySize=auto;html=1;exitX=0.5;exitY=0;exitDx=0;exitDy=0;entryX=0.5;entryY=1;entryDx=0;entryDy=0;labelBackgroundColor=default;strokeColor=default;align=center;verticalAlign=middle;fontFamily=Helvetica;fontSize=11;fontColor=default;endArrow=classic;" edge="1" parent="Wn9fYrWoe3Q-h8Q3vDjF-68" source="Wn9fYrWoe3Q-h8Q3vDjF-18" target="Wn9fYrWoe3Q-h8Q3vDjF-13">
          <mxGeometry relative="1" as="geometry" />
        </mxCell>
        <mxCell id="Wn9fYrWoe3Q-h8Q3vDjF-18" value="dispatcher" style="rounded=1;whiteSpace=wrap;html=1;verticalAlign=top;" vertex="1" parent="Wn9fYrWoe3Q-h8Q3vDjF-68">
          <mxGeometry x="450" y="300" width="250" height="140" as="geometry" />
        </mxCell>
        <mxCell id="Wn9fYrWoe3Q-h8Q3vDjF-19" style="edgeStyle=orthogonalEdgeStyle;rounded=0;orthogonalLoop=1;jettySize=auto;html=1;entryX=0;entryY=0.5;entryDx=0;entryDy=0;curved=1;" edge="1" parent="Wn9fYrWoe3Q-h8Q3vDjF-68" source="Wn9fYrWoe3Q-h8Q3vDjF-5" target="Wn9fYrWoe3Q-h8Q3vDjF-18">
          <mxGeometry relative="1" as="geometry">
            <Array as="points">
              <mxPoint x="290" y="180" />
              <mxPoint x="290" y="400" />
            </Array>
          </mxGeometry>
        </mxCell>
        <mxCell id="Wn9fYrWoe3Q-h8Q3vDjF-21" value="related to registered document?" style="rhombus;whiteSpace=wrap;html=1;" vertex="1" parent="Wn9fYrWoe3Q-h8Q3vDjF-68">
          <mxGeometry x="525" y="325" width="100" height="100" as="geometry" />
        </mxCell>
        <mxCell id="Wn9fYrWoe3Q-h8Q3vDjF-23" value="Integration Partner 1" style="rounded=0;whiteSpace=wrap;html=1;" vertex="1" parent="Wn9fYrWoe3Q-h8Q3vDjF-68">
          <mxGeometry x="780" y="80" width="120" height="60" as="geometry" />
        </mxCell>
        <mxCell id="Wn9fYrWoe3Q-h8Q3vDjF-27" style="edgeStyle=orthogonalEdgeStyle;rounded=0;orthogonalLoop=1;jettySize=auto;html=1;entryX=0;entryY=0.5;entryDx=0;entryDy=0;curved=1;" edge="1" parent="Wn9fYrWoe3Q-h8Q3vDjF-68" source="Wn9fYrWoe3Q-h8Q3vDjF-18" target="Wn9fYrWoe3Q-h8Q3vDjF-23">
          <mxGeometry relative="1" as="geometry" />
        </mxCell>
        <mxCell id="Wn9fYrWoe3Q-h8Q3vDjF-24" value="Integration Partner 2" style="rounded=0;whiteSpace=wrap;html=1;" vertex="1" parent="Wn9fYrWoe3Q-h8Q3vDjF-68">
          <mxGeometry x="780" y="150" width="120" height="60" as="geometry" />
        </mxCell>
        <mxCell id="Wn9fYrWoe3Q-h8Q3vDjF-25" value="Integration Partner 3" style="rounded=0;whiteSpace=wrap;html=1;" vertex="1" parent="Wn9fYrWoe3Q-h8Q3vDjF-68">
          <mxGeometry x="780" y="220" width="120" height="60" as="geometry" />
        </mxCell>
        <mxCell id="Wn9fYrWoe3Q-h8Q3vDjF-67" style="edgeStyle=orthogonalEdgeStyle;shape=connector;curved=1;rounded=0;orthogonalLoop=1;jettySize=auto;html=1;exitX=1;exitY=0.5;exitDx=0;exitDy=0;entryX=0;entryY=0.5;entryDx=0;entryDy=0;labelBackgroundColor=default;strokeColor=default;align=center;verticalAlign=middle;fontFamily=Helvetica;fontSize=11;fontColor=default;endArrow=classic;" edge="1" parent="Wn9fYrWoe3Q-h8Q3vDjF-68" source="Wn9fYrWoe3Q-h8Q3vDjF-18" target="Wn9fYrWoe3Q-h8Q3vDjF-25">
          <mxGeometry relative="1" as="geometry" />
        </mxCell>
        <mxCell id="Wn9fYrWoe3Q-h8Q3vDjF-26" value="Integration Partner 4" style="rounded=0;whiteSpace=wrap;html=1;" vertex="1" parent="Wn9fYrWoe3Q-h8Q3vDjF-68">
          <mxGeometry x="780" y="290" width="120" height="60" as="geometry" />
        </mxCell>
        <mxCell id="Wn9fYrWoe3Q-h8Q3vDjF-30" style="edgeStyle=orthogonalEdgeStyle;shape=connector;curved=1;rounded=0;orthogonalLoop=1;jettySize=auto;html=1;labelBackgroundColor=default;strokeColor=default;align=center;verticalAlign=middle;fontFamily=Helvetica;fontSize=11;fontColor=default;endArrow=classic;" edge="1" parent="Wn9fYrWoe3Q-h8Q3vDjF-68" source="Wn9fYrWoe3Q-h8Q3vDjF-18" target="Wn9fYrWoe3Q-h8Q3vDjF-26">
          <mxGeometry relative="1" as="geometry" />
        </mxCell>
        <mxCell id="Wn9fYrWoe3Q-h8Q3vDjF-28" style="edgeStyle=orthogonalEdgeStyle;shape=connector;curved=1;rounded=0;orthogonalLoop=1;jettySize=auto;html=1;entryX=0.008;entryY=0.633;entryDx=0;entryDy=0;entryPerimeter=0;labelBackgroundColor=default;strokeColor=default;align=center;verticalAlign=middle;fontFamily=Helvetica;fontSize=11;fontColor=default;endArrow=classic;" edge="1" parent="Wn9fYrWoe3Q-h8Q3vDjF-68" source="Wn9fYrWoe3Q-h8Q3vDjF-18" target="Wn9fYrWoe3Q-h8Q3vDjF-24">
          <mxGeometry relative="1" as="geometry" />
        </mxCell>
        <mxCell id="Wn9fYrWoe3Q-h8Q3vDjF-69" value="" style="group" vertex="1" connectable="0" parent="1">
          <mxGeometry x="40" y="870" width="960" height="550" as="geometry" />
        </mxCell>
        <mxCell id="Wn9fYrWoe3Q-h8Q3vDjF-31" value="" style="rounded=0;whiteSpace=wrap;html=1;fillColor=#f5f5f5;strokeColor=#666666;fontColor=#333333;" vertex="1" parent="Wn9fYrWoe3Q-h8Q3vDjF-69">
          <mxGeometry width="960" height="550" as="geometry" />
        </mxCell>
        <mxCell id="Wn9fYrWoe3Q-h8Q3vDjF-34" value="ERP System" style="sketch=0;outlineConnect=0;gradientColor=none;fontColor=#545B64;strokeColor=none;fillColor=#879196;dashed=0;verticalLabelPosition=bottom;verticalAlign=top;align=center;html=1;fontSize=12;fontStyle=0;aspect=fixed;shape=mxgraph.aws4.illustration_office_building;pointerEvents=1" vertex="1" parent="Wn9fYrWoe3Q-h8Q3vDjF-69">
          <mxGeometry x="30" y="30" width="90" height="63.9" as="geometry" />
        </mxCell>
        <mxCell id="Wn9fYrWoe3Q-h8Q3vDjF-36" value="Shipment&lt;br&gt;" style="sketch=0;outlineConnect=0;fontColor=#232F3E;gradientColor=none;strokeColor=#232F3E;fillColor=#ffffff;dashed=0;verticalLabelPosition=bottom;verticalAlign=top;align=center;html=1;fontSize=12;fontStyle=0;aspect=fixed;shape=mxgraph.aws4.resourceIcon;resIcon=mxgraph.aws4.topic_2;" vertex="1" parent="Wn9fYrWoe3Q-h8Q3vDjF-69">
          <mxGeometry x="218" y="22" width="80" height="80" as="geometry" />
        </mxCell>
        <mxCell id="Wn9fYrWoe3Q-h8Q3vDjF-32" style="edgeStyle=orthogonalEdgeStyle;rounded=0;orthogonalLoop=1;jettySize=auto;html=1;curved=1;" edge="1" parent="Wn9fYrWoe3Q-h8Q3vDjF-69" source="Wn9fYrWoe3Q-h8Q3vDjF-34" target="Wn9fYrWoe3Q-h8Q3vDjF-36">
          <mxGeometry relative="1" as="geometry" />
        </mxCell>
        <mxCell id="Wn9fYrWoe3Q-h8Q3vDjF-38" value="Routing" style="sketch=0;outlineConnect=0;fontColor=#232F3E;gradientColor=none;strokeColor=#232F3E;fillColor=#ffffff;dashed=0;verticalLabelPosition=bottom;verticalAlign=top;align=center;html=1;fontSize=12;fontStyle=0;aspect=fixed;shape=mxgraph.aws4.resourceIcon;resIcon=mxgraph.aws4.topic_2;" vertex="1" parent="Wn9fYrWoe3Q-h8Q3vDjF-69">
          <mxGeometry x="130" y="140" width="80" height="80" as="geometry" />
        </mxCell>
        <mxCell id="Wn9fYrWoe3Q-h8Q3vDjF-33" style="edgeStyle=orthogonalEdgeStyle;rounded=0;orthogonalLoop=1;jettySize=auto;html=1;curved=1;" edge="1" parent="Wn9fYrWoe3Q-h8Q3vDjF-69" source="Wn9fYrWoe3Q-h8Q3vDjF-34" target="Wn9fYrWoe3Q-h8Q3vDjF-38">
          <mxGeometry relative="1" as="geometry" />
        </mxCell>
        <mxCell id="Wn9fYrWoe3Q-h8Q3vDjF-39" value="" style="image;aspect=fixed;perimeter=ellipsePerimeter;html=1;align=center;shadow=0;dashed=0;spacingTop=3;image=img/lib/active_directory/database.svg;noLabel=0;" vertex="1" parent="Wn9fYrWoe3Q-h8Q3vDjF-69">
          <mxGeometry x="466.96999999999997" y="125" width="108.11" height="80" as="geometry" />
        </mxCell>
        <mxCell id="Wn9fYrWoe3Q-h8Q3vDjF-40" value="Business Segment, Vertical or Customer Registration" style="text;html=1;strokeColor=none;fillColor=none;align=center;verticalAlign=middle;whiteSpace=wrap;rounded=0;" vertex="1" parent="Wn9fYrWoe3Q-h8Q3vDjF-69">
          <mxGeometry x="443.025" y="195" width="156" height="60" as="geometry" />
        </mxCell>
        <mxCell id="Wn9fYrWoe3Q-h8Q3vDjF-41" style="edgeStyle=orthogonalEdgeStyle;rounded=0;orthogonalLoop=1;jettySize=auto;html=1;entryX=0.5;entryY=0;entryDx=0;entryDy=0;" edge="1" parent="Wn9fYrWoe3Q-h8Q3vDjF-69" source="Wn9fYrWoe3Q-h8Q3vDjF-42" target="Wn9fYrWoe3Q-h8Q3vDjF-39">
          <mxGeometry relative="1" as="geometry" />
        </mxCell>
        <mxCell id="Wn9fYrWoe3Q-h8Q3vDjF-42" value="&quot;domain&quot; registration" style="rounded=1;whiteSpace=wrap;html=1;" vertex="1" parent="Wn9fYrWoe3Q-h8Q3vDjF-69">
          <mxGeometry x="461.025" y="32" width="120" height="60" as="geometry" />
        </mxCell>
        <mxCell id="Wn9fYrWoe3Q-h8Q3vDjF-43" style="edgeStyle=orthogonalEdgeStyle;rounded=0;orthogonalLoop=1;jettySize=auto;html=1;" edge="1" parent="Wn9fYrWoe3Q-h8Q3vDjF-69" source="Wn9fYrWoe3Q-h8Q3vDjF-44" target="Wn9fYrWoe3Q-h8Q3vDjF-42">
          <mxGeometry relative="1" as="geometry" />
        </mxCell>
        <mxCell id="Wn9fYrWoe3Q-h8Q3vDjF-44" value="" style="sketch=0;outlineConnect=0;fontColor=#232F3E;gradientColor=none;fillColor=#232F3D;strokeColor=none;dashed=0;verticalLabelPosition=bottom;verticalAlign=top;align=center;html=1;fontSize=12;fontStyle=0;aspect=fixed;pointerEvents=1;shape=mxgraph.aws4.data_stream;" vertex="1" parent="Wn9fYrWoe3Q-h8Q3vDjF-69">
          <mxGeometry x="290.8" y="35.950000000000045" width="52" height="52" as="geometry" />
        </mxCell>
        <mxCell id="Wn9fYrWoe3Q-h8Q3vDjF-51" value="Integration Partner 1" style="rounded=0;whiteSpace=wrap;html=1;" vertex="1" parent="Wn9fYrWoe3Q-h8Q3vDjF-69">
          <mxGeometry x="810" y="102" width="120" height="60" as="geometry" />
        </mxCell>
        <mxCell id="Wn9fYrWoe3Q-h8Q3vDjF-52" value="Integration Partner 2" style="rounded=0;whiteSpace=wrap;html=1;" vertex="1" parent="Wn9fYrWoe3Q-h8Q3vDjF-69">
          <mxGeometry x="810" y="172" width="120" height="60" as="geometry" />
        </mxCell>
        <mxCell id="Wn9fYrWoe3Q-h8Q3vDjF-53" value="Integration Partner 3" style="rounded=0;whiteSpace=wrap;html=1;" vertex="1" parent="Wn9fYrWoe3Q-h8Q3vDjF-69">
          <mxGeometry x="810" y="242" width="120" height="60" as="geometry" />
        </mxCell>
        <mxCell id="Wn9fYrWoe3Q-h8Q3vDjF-54" value="Integration Partner 4" style="rounded=0;whiteSpace=wrap;html=1;" vertex="1" parent="Wn9fYrWoe3Q-h8Q3vDjF-69">
          <mxGeometry x="810" y="312" width="120" height="60" as="geometry" />
        </mxCell>
        <mxCell id="Wn9fYrWoe3Q-h8Q3vDjF-55" style="edgeStyle=orthogonalEdgeStyle;shape=connector;curved=1;rounded=0;orthogonalLoop=1;jettySize=auto;html=1;entryX=0.008;entryY=0.633;entryDx=0;entryDy=0;entryPerimeter=0;labelBackgroundColor=default;strokeColor=default;align=center;verticalAlign=middle;fontFamily=Helvetica;fontSize=11;fontColor=default;endArrow=classic;" edge="1" parent="Wn9fYrWoe3Q-h8Q3vDjF-69" source="Wn9fYrWoe3Q-h8Q3vDjF-48" target="Wn9fYrWoe3Q-h8Q3vDjF-52">
          <mxGeometry relative="1" as="geometry" />
        </mxCell>
        <mxCell id="Wn9fYrWoe3Q-h8Q3vDjF-64" value="" style="group" vertex="1" connectable="0" parent="Wn9fYrWoe3Q-h8Q3vDjF-69">
          <mxGeometry x="360" y="340" width="322.04999999999995" height="190" as="geometry" />
        </mxCell>
        <mxCell id="Wn9fYrWoe3Q-h8Q3vDjF-48" value="router" style="rounded=1;whiteSpace=wrap;html=1;align=center;verticalAlign=top;" vertex="1" parent="Wn9fYrWoe3Q-h8Q3vDjF-64">
          <mxGeometry width="322.05" height="190" as="geometry" />
        </mxCell>
        <mxCell id="Wn9fYrWoe3Q-h8Q3vDjF-50" value="related to registered document?" style="rhombus;whiteSpace=wrap;html=1;" vertex="1" parent="Wn9fYrWoe3Q-h8Q3vDjF-64">
          <mxGeometry x="182.04999999999995" y="40" width="100" height="100" as="geometry" />
        </mxCell>
        <mxCell id="Wn9fYrWoe3Q-h8Q3vDjF-56" value="" style="sketch=0;pointerEvents=1;shadow=0;dashed=0;html=1;strokeColor=none;fillColor=#505050;labelPosition=center;verticalLabelPosition=bottom;verticalAlign=top;outlineConnect=0;align=center;shape=mxgraph.office.concepts.clock;fontFamily=Helvetica;fontSize=11;fontColor=default;" vertex="1" parent="Wn9fYrWoe3Q-h8Q3vDjF-64">
          <mxGeometry x="35" y="30" width="66.5" height="57.5" as="geometry" />
        </mxCell>
        <mxCell id="Wn9fYrWoe3Q-h8Q3vDjF-59" value="If message older than queueLag, process&lt;br&gt;&lt;br&gt;Else, Exit" style="text;html=1;strokeColor=none;fillColor=none;align=center;verticalAlign=middle;whiteSpace=wrap;rounded=0;fontSize=11;fontFamily=Helvetica;fontColor=default;" vertex="1" parent="Wn9fYrWoe3Q-h8Q3vDjF-64">
          <mxGeometry x="24.649999999999977" y="110" width="87.2" height="30" as="geometry" />
        </mxCell>
        <mxCell id="Wn9fYrWoe3Q-h8Q3vDjF-45" style="edgeStyle=orthogonalEdgeStyle;rounded=0;orthogonalLoop=1;jettySize=auto;html=1;entryX=0;entryY=0.5;entryDx=0;entryDy=0;curved=1;" edge="1" parent="Wn9fYrWoe3Q-h8Q3vDjF-69" source="Wn9fYrWoe3Q-h8Q3vDjF-48" target="Wn9fYrWoe3Q-h8Q3vDjF-51">
          <mxGeometry relative="1" as="geometry" />
        </mxCell>
        <mxCell id="Wn9fYrWoe3Q-h8Q3vDjF-47" style="edgeStyle=orthogonalEdgeStyle;shape=connector;curved=1;rounded=0;orthogonalLoop=1;jettySize=auto;html=1;labelBackgroundColor=default;strokeColor=default;align=center;verticalAlign=middle;fontFamily=Helvetica;fontSize=11;fontColor=default;endArrow=classic;" edge="1" parent="Wn9fYrWoe3Q-h8Q3vDjF-69" source="Wn9fYrWoe3Q-h8Q3vDjF-48" target="Wn9fYrWoe3Q-h8Q3vDjF-54">
          <mxGeometry relative="1" as="geometry" />
        </mxCell>
        <mxCell id="Wn9fYrWoe3Q-h8Q3vDjF-57" style="edgeStyle=orthogonalEdgeStyle;shape=connector;curved=1;rounded=0;orthogonalLoop=1;jettySize=auto;html=1;labelBackgroundColor=default;strokeColor=default;align=center;verticalAlign=middle;fontFamily=Helvetica;fontSize=11;fontColor=default;endArrow=classic;" edge="1" parent="Wn9fYrWoe3Q-h8Q3vDjF-69" source="Wn9fYrWoe3Q-h8Q3vDjF-38" target="Wn9fYrWoe3Q-h8Q3vDjF-56">
          <mxGeometry relative="1" as="geometry" />
        </mxCell>
        <mxCell id="Wn9fYrWoe3Q-h8Q3vDjF-65" style="edgeStyle=orthogonalEdgeStyle;shape=connector;curved=1;rounded=0;orthogonalLoop=1;jettySize=auto;html=1;exitX=0.5;exitY=0;exitDx=0;exitDy=0;entryX=0.5;entryY=1;entryDx=0;entryDy=0;labelBackgroundColor=default;strokeColor=default;align=center;verticalAlign=middle;fontFamily=Helvetica;fontSize=11;fontColor=default;endArrow=classic;" edge="1" parent="Wn9fYrWoe3Q-h8Q3vDjF-69" source="Wn9fYrWoe3Q-h8Q3vDjF-48" target="Wn9fYrWoe3Q-h8Q3vDjF-40">
          <mxGeometry relative="1" as="geometry" />
        </mxCell>
        <mxCell id="Wn9fYrWoe3Q-h8Q3vDjF-58" style="edgeStyle=orthogonalEdgeStyle;shape=connector;curved=1;rounded=0;orthogonalLoop=1;jettySize=auto;html=1;labelBackgroundColor=default;strokeColor=default;align=center;verticalAlign=middle;fontFamily=Helvetica;fontSize=11;fontColor=default;endArrow=classic;" edge="1" parent="Wn9fYrWoe3Q-h8Q3vDjF-69" source="Wn9fYrWoe3Q-h8Q3vDjF-44" target="Wn9fYrWoe3Q-h8Q3vDjF-56">
          <mxGeometry relative="1" as="geometry" />
        </mxCell>
        <mxCell id="Wn9fYrWoe3Q-h8Q3vDjF-66" style="edgeStyle=orthogonalEdgeStyle;shape=connector;curved=1;rounded=0;orthogonalLoop=1;jettySize=auto;html=1;exitX=1;exitY=0.5;exitDx=0;exitDy=0;entryX=0;entryY=0.5;entryDx=0;entryDy=0;labelBackgroundColor=default;strokeColor=default;align=center;verticalAlign=middle;fontFamily=Helvetica;fontSize=11;fontColor=default;endArrow=classic;" edge="1" parent="Wn9fYrWoe3Q-h8Q3vDjF-69" source="Wn9fYrWoe3Q-h8Q3vDjF-48" target="Wn9fYrWoe3Q-h8Q3vDjF-53">
          <mxGeometry relative="1" as="geometry" />
        </mxCell>
      </root>
    </mxGraphModel>
  </diagram>
</mxfile>
